<svg width="87" height="30" viewBox="0 0 87 30" fill="none" xmlns="http://www.w3.org/2000/svg">
<path d="M3.696 21.8L1.464 19.352L12.516 9.488C12.876 9.152 13.272 8.996 13.704 9.02C14.16 9.044 14.544 9.236 14.856 9.596C15.192 9.956 15.348 10.352 15.324 10.784C15.3 11.216 15.108 11.6 14.748 11.936L3.696 21.8ZM2.004 29C1.476 29 1.044 28.844 0.708 28.532C0.396 28.196 0.24 27.764 0.24 27.236V2.648C0.24 2.12 0.396 1.7 0.708 1.388C1.044 1.052 1.476 0.883999 2.004 0.883999C2.532 0.883999 2.952 1.052 3.264 1.388C3.6 1.7 3.768 2.12 3.768 2.648V27.236C3.768 27.764 3.6 28.196 3.264 28.532C2.952 28.844 2.532 29 2.004 29ZM14.856 28.82C14.472 29.132 14.04 29.264 13.56 29.216C13.104 29.192 12.72 28.988 12.408 28.604L5.1 19.568L7.62 17.192L15.108 26.408C15.42 26.792 15.552 27.212 15.504 27.668C15.48 28.1 15.264 28.484 14.856 28.82ZM27.1511 29.144C25.3991 29.144 23.8271 28.712 22.4351 27.848C21.0431 26.96 19.9391 25.772 19.1231 24.284C18.3311 22.772 17.9351 21.068 17.9351 19.172C17.9351 17.276 18.3671 15.572 19.2311 14.06C20.1191 12.548 21.3071 11.36 22.7951 10.496C24.3071 9.608 25.9991 9.164 27.8711 9.164C29.7431 9.164 31.4231 9.608 32.9111 10.496C34.3991 11.36 35.5751 12.548 36.4391 14.06C37.3271 15.572 37.7711 17.276 37.7711 19.172H36.3671C36.3671 21.068 35.9591 22.772 35.1431 24.284C34.3511 25.772 33.2591 26.96 31.8671 27.848C30.4751 28.712 28.9031 29.144 27.1511 29.144ZM27.8711 25.904C29.0951 25.904 30.1871 25.616 31.1471 25.04C32.1071 24.44 32.8631 23.636 33.4151 22.628C33.9671 21.596 34.2431 20.444 34.2431 19.172C34.2431 17.876 33.9671 16.724 33.4151 15.716C32.8631 14.684 32.1071 13.88 31.1471 13.304C30.1871 12.704 29.0951 12.404 27.8711 12.404C26.6711 12.404 25.5791 12.704 24.5951 13.304C23.6351 13.88 22.8671 14.684 22.2911 15.716C21.7391 16.724 21.4631 17.876 21.4631 19.172C21.4631 20.444 21.7391 21.596 22.2911 22.628C22.8671 23.636 23.6351 24.44 24.5951 25.04C25.5791 25.616 26.6711 25.904 27.8711 25.904ZM35.9351 29.036C35.4071 29.036 34.9631 28.868 34.6031 28.532C34.2671 28.172 34.0991 27.728 34.0991 27.2V21.692L34.7831 17.876L37.7711 19.172V27.2C37.7711 27.728 37.5911 28.172 37.2311 28.532C36.8951 28.868 36.4631 29.036 35.9351 29.036ZM59.8681 29.036C59.3401 29.036 58.8961 28.868 58.5361 28.532C58.2001 28.172 58.0321 27.728 58.0321 27.2V18.344C58.0321 16.976 57.7801 15.86 57.2761 14.996C56.7721 14.132 56.0881 13.496 55.2241 13.088C54.3841 12.656 53.4121 12.44 52.3081 12.44C51.3001 12.44 50.3881 12.644 49.5721 13.052C48.7561 13.46 48.1081 14.012 47.6281 14.708C47.1481 15.38 46.9081 16.16 46.9081 17.048H44.6401C44.6401 15.536 45.0001 14.192 45.7201 13.016C46.4641 11.816 47.4721 10.868 48.7441 10.172C50.0161 9.476 51.4441 9.128 53.0281 9.128C54.6841 9.128 56.1601 9.488 57.4561 10.208C58.7761 10.904 59.8081 11.936 60.5521 13.304C61.3201 14.672 61.7041 16.352 61.7041 18.344V27.2C61.7041 27.728 61.5241 28.172 61.1641 28.532C60.8281 28.868 60.3961 29.036 59.8681 29.036ZM45.0721 29.036C44.5441 29.036 44.1001 28.868 43.7401 28.532C43.4041 28.172 43.2361 27.728 43.2361 27.2V11.144C43.2361 10.592 43.4041 10.148 43.7401 9.812C44.1001 9.476 44.5441 9.308 45.0721 9.308C45.6241 9.308 46.0681 9.476 46.4041 9.812C46.7401 10.148 46.9081 10.592 46.9081 11.144V27.2C46.9081 27.728 46.7401 28.172 46.4041 28.532C46.0681 28.868 45.6241 29.036 45.0721 29.036ZM76.7032 29.144C74.7592 29.144 73.0432 28.724 71.5552 27.884C70.0672 27.02 68.8912 25.844 68.0272 24.356C67.1872 22.844 66.7672 21.116 66.7672 19.172C66.7672 17.204 67.1872 15.476 68.0272 13.988C68.8912 12.476 70.0672 11.3 71.5552 10.46C73.0432 9.596 74.7592 9.164 76.7032 9.164C78.6232 9.164 80.3272 9.596 81.8152 10.46C83.3032 11.3 84.4672 12.476 85.3072 13.988C86.1712 15.476 86.6032 17.204 86.6032 19.172C86.6032 21.116 86.1832 22.844 85.3432 24.356C84.5032 25.844 83.3392 27.02 81.8512 27.884C80.3632 28.724 78.6472 29.144 76.7032 29.144ZM76.7032 25.904C77.9512 25.904 79.0552 25.616 80.0152 25.04C80.9752 24.464 81.7192 23.672 82.2472 22.664C82.7992 21.656 83.0752 20.492 83.0752 19.172C83.0752 17.852 82.7992 16.688 82.2472 15.68C81.7192 14.648 80.9752 13.844 80.0152 13.268C79.0552 12.692 77.9512 12.404 76.7032 12.404C75.4552 12.404 74.3512 12.692 73.3912 13.268C72.4312 13.844 71.6752 14.648 71.1232 15.68C70.5712 16.688 70.2952 17.852 70.2952 19.172C70.2952 20.492 70.5712 21.656 71.1232 22.664C71.6752 23.672 72.4312 24.464 73.3912 25.04C74.3512 25.616 75.4552 25.904 76.7032 25.904Z" fill="#111111"/>
</svg>
